<?xml version="1.0" standalone="no"?>
<!DOCTYPE svg PUBLIC "-//W3C//DTD SVG 20010904//EN"
 "http://www.w3.org/TR/2001/REC-SVG-20010904/DTD/svg10.dtd">
<svg version="1.0" xmlns="http://www.w3.org/2000/svg"
 width="500.000000pt" height="500.000000pt" viewBox="0 0 500.000000 500.000000"
 preserveAspectRatio="xMidYMid meet">

<g transform="translate(0.000000,500.000000) scale(0.100000,-0.100000)"
fill="#000000" stroke="none">
<path d="M135 4976 c-60 -28 -87 -56 -114 -116 -21 -45 -21 -51 -21 -2360 l0
-2315 24 -51 c25 -54 68 -93 129 -119 32 -13 295 -15 2347 -15 2052 0 2315 2
2347 15 61 26 104 65 129 119 l24 51 0 2315 c0 2309 0 2315 -21 2360 -27 60
-54 88 -114 116 l-50 24 -2315 0 -2315 0 -50 -24z m2370 -844 c273 -69 506
-202 688 -391 189 -198 306 -420 364 -691 14 -66 18 -129 18 -280 -1 -171 -4
-207 -24 -290 -43 -171 -100 -308 -187 -443 -24 -37 -44 -71 -44 -74 0 -4 180
-184 401 -401 253 -250 408 -410 421 -436 63 -122 -17 -271 -152 -284 -94 -9
-93 -10 -539 429 -394 387 -417 408 -436 394 -11 -8 -62 -40 -114 -72 -230
-138 -490 -202 -766 -189 -222 10 -421 66 -609 172 -371 208 -617 558 -691
983 -20 111 -19 351 1 464 34 195 122 404 241 568 119 166 335 347 517 433
104 50 260 102 346 116 41 6 82 13 90 15 8 2 101 2 205 0 148 -2 207 -8 270
-23z"/>
<path d="M2033 3755 c-213 -39 -391 -134 -544 -292 -169 -174 -262 -382 -276
-618 -28 -487 296 -919 772 -1027 113 -26 306 -28 412 -4 485 107 821 543 788
1021 -21 303 -162 564 -400 740 -214 159 -497 226 -752 180z"/>
</g>
</svg>
